{"title":"Chinese.Zodiac.2012.3D.1080p.Bluray.HSBS.X264.CHI.DTS.ENG.HARDSU","uid":8252376,"size":13788089075,"categoryP":"video","categoryS":"3d","magnet":"?xt=urn:btih:503af328784785995bbf7114cd1704dbe968c498&amp;dn=Chinese.Zodiac.2012.3D.1080p.Bluray.HSBS.X264.CHI.DTS.ENG.HARDSU&amp;tr=udp%3A%2F%2Ftracker.openbittorrent.com%3A80&amp;tr=udp%3A%2F%2Fopen.demonii.com%3A1337&amp;tr=udp%3A%2F%2Ftracker.coppersurfer.tk%3A6969&amp;tr=udp%3A%2F%2Fexodus.desync.com%3A6969","seeders":0,"leechers":4,"uploader":"aoloffline","files":2,"time":1363187223,"description":"Public3D - High-Definition Bittorrent 3D Community\n  &lt;a href=&quot;\nhttp://public3d.se/&quot; rel=&quot;nofollow&quot; target=&quot;_NEW&quot;&gt;\nhttp://public3d.se/&lt;/a&gt;\n\n-----------------------------------------------------\n\n\n\nThis Release has complete hardcoded english subtitles !\n\n\nQuote:\n\n--------------------------------------------------------------------------------------------------\n                                            RELEASE INFO\n--------------------------------------------------------------------------------------------------\n                                            RELEASE NAME\n            Chinese.Zodiac.2012.3D.1080p.Bluray.HSBS.X264.CHI.DTS.ENG.HARDSUBBED-zman\n--------------------------------------------------------------------------------------------------\n                                       General Information\n--------------------------------------------------------------------------------------------------\nOriginal Title.......: Chinese Zodiac\nType.................: 3D Blu-ray Half Side By Side Encode\nEncoder..............: z-man\nAudio................: Chinese 5.1 DTS @ 1509 Kbps\nSubtitles............: English complete ( Hardcoded ! )\nGenre................: Action | Adventure\nIMDb Link............: http://www.imdb.com/title/tt1424310/\nFormat...............: MKV\nMKV Size.............: 12.8 GiB\nVideo Bitrate........: 13.1 Mbps ( crf18 )\nLength...............: 2h 3mn\nCodec................: X264\nResolution...........: 1080P\nFPS..................: 23.976\nOriginal Format......: 3D Bluray\nSource...............: Chinese.Zodiac.2012.1080p.RUS.Blu-ray.2D/3D.AVC.DTS-HDMA5.1-BLUEBIRD\nNotes................: Huge THX To BLUEBIRD for this ISO \n--------------------------------------------------------------------------------------------------\n                                           Media Info\n--------------------------------------------------------------------------------------------------\nFormat                                   : Matroska\nFormat version                           : Version 4 / Version 2\nFile size                                : 12.8 GiB\nDuration                                 : 2h 3mn\nOverall bit rate                         : 14.9 Mbps\n\nVideo\nID                                       : 1\nFormat                                   : AVC\nFormat/Info                              : Advanced Video Codec\nFormat profile                           : &lt;a class=&quot;__cf_email__&quot; href=&quot;/cdn-cgi/l/email-protection&quot; data-cfemail=&quot;ca82a3ada28a86fee4fb&quot;&gt;[email&amp;#160;protected]&lt;/a&gt;&lt;script cf-hash='f9e31' type=&quot;text/javascript&quot;&gt;\n/* &lt;![CDATA[ */!function(){try{var t=&quot;currentScript&quot;in document?document.currentScript:function(){for(var t=document.getElementsByTagName(&quot;script&quot;),e=t.length;e--;)if(t[e].getAttribute(&quot;cf-hash&quot;))return t[e]}();if(t&amp;&amp;t.previousSibling){var e,r,n,i,c=t.previousSibling,a=c.getAttribute(&quot;data-cfemail&quot;);if(a){for(e=&quot;&quot;,r=parseInt(a.substr(0,2),16),n=2;a.length-n;n+=2)i=parseInt(a.substr(n,2),16)^r,e+=String.fromCharCode(i);e=document.createTextNode(e),c.parentNode.replaceChild(e,c)}}}catch(u){}}();/* ]]&gt; */&lt;/script&gt;\nMultiView_Count                          : 2\nMultiView_Layout                         : Side by Side (left eye first)\nFormat settings, CABAC                   : Yes\nFormat settings, ReFrames                : 4 frames\nCodec ID                                 : V_MPEG4/ISO/AVC\nDuration                                 : 2h 3mn\nBit rate                                 : 13.1 Mbps\nWidth                                    : 1 920 pixels\nHeight                                   : 1 080 pixels\nDisplay aspect ratio                     : 16:9\nFrame rate mode                          : Constant\nFrame rate                               : 23.976 fps\nColor space                              : YUV\nChroma subsampling                       : 4:2:0\nBit depth                                : 8 bits\nScan type                                : Progressive\nBits/(Pixel*Frame)                       : 0.264\nStream size                              : 11.3 GiB (88%)\nTitle                                    : Chinese.Zodiac.2012.3D.1080p.Bluray.HSBS.X264.CHI.DTS.ENG.HARDSUBBED-zman\n\nLanguage                                 : English\nDefault                                  : Yes\nForced                                   : No\n\nAudio\nID                                       : 2\nFormat                                   : DTS\nFormat/Info                              : Digital Theater Systems\nMode                                     : 16\nFormat settings, Endianness              : Big\nCodec ID                                 : A_DTS\nDuration                                 : 2h 3mn\nBit rate mode                            : Constant\nBit rate                                 : 1 509 Kbps\nChannel(s)                               : 6 channels\nChannel positions                        : Front: L C R, Side: L R, LFE\nSampling rate                            : 48.0 KHz\nBit depth                                : 24 bits\nCompression mode                         : Lossy\nStream size                              : 1.30 GiB (10%)\nLanguage                                 : Chinese\nDefault                                  : Yes\nForced                                   : No","torrent":{"xt":"urn:btih:503af328784785995bbf7114cd1704dbe968c498","amp;dn":"Chinese.Zodiac.2012.3D.1080p.Bluray.HSBS.X264.CHI.DTS.ENG.HARDSU","amp;tr":["udp%3A%2F%2Ftracker.openbittorrent.com%3A80","udp%3A%2F%2Fopen.demonii.com%3A1337","udp%3A%2F%2Ftracker.coppersurfer.tk%3A6969","udp%3A%2F%2Fexodus.desync.com%3A6969"],"infoHash":"503af328784785995bbf7114cd1704dbe968c498","infoHashBuffer":{"type":"Buffer","data":[80,58,243,40,120,71,133,153,91,191,113,20,205,23,4,219,233,104,196,152]},"announce":[],"urlList":[]}}